<svg width="512" height="458" viewBox="0 0 512 458" fill="none" xmlns="http://www.w3.org/2000/svg">
<rect width="512" height="458" fill="black" fill-opacity="0.12"/>
<path d="M235.968 411H233.698C233.529 410.155 233.223 409.374 232.78 408.658C232.346 407.933 231.798 407.301 231.138 406.762C230.478 406.223 229.73 405.804 228.893 405.506C228.056 405.209 227.15 405.06 226.176 405.06C224.614 405.06 223.19 405.466 221.902 406.279C220.622 407.092 219.596 408.287 218.823 409.865C218.058 411.435 217.676 413.358 217.676 415.636C217.676 417.93 218.058 419.862 218.823 421.432C219.596 423.001 220.622 424.193 221.902 425.006C223.19 425.811 224.614 426.213 226.176 426.213C227.15 426.213 228.056 426.064 228.893 425.766C229.73 425.469 230.478 425.054 231.138 424.523C231.798 423.983 232.346 423.352 232.78 422.627C233.223 421.903 233.529 421.118 233.698 420.273H235.968C235.767 421.408 235.388 422.466 234.833 423.448C234.286 424.422 233.585 425.275 232.732 426.008C231.887 426.74 230.913 427.312 229.81 427.722C228.708 428.133 227.496 428.338 226.176 428.338C224.099 428.338 222.256 427.819 220.646 426.781C219.036 425.734 217.773 424.261 216.855 422.362C215.945 420.462 215.491 418.22 215.491 415.636C215.491 413.053 215.945 410.811 216.855 408.911C217.773 407.012 219.036 405.543 220.646 404.504C222.256 403.458 224.099 402.935 226.176 402.935C227.496 402.935 228.708 403.14 229.81 403.55C230.913 403.953 231.887 404.524 232.732 405.265C233.585 405.997 234.286 406.851 234.833 407.825C235.388 408.799 235.767 409.857 235.968 411ZM248.033 428.386C246.431 428.386 245.014 427.98 243.783 427.167C242.559 426.354 241.601 425.231 240.909 423.798C240.217 422.357 239.871 420.695 239.871 418.812C239.871 416.912 240.217 415.242 240.909 413.801C241.601 412.352 242.559 411.225 243.783 410.42C245.014 409.607 246.431 409.201 248.033 409.201C249.635 409.201 251.047 409.607 252.271 410.42C253.494 411.233 254.452 412.36 255.144 413.801C255.845 415.242 256.195 416.912 256.195 418.812C256.195 420.695 255.849 422.357 255.156 423.798C254.464 425.231 253.502 426.354 252.271 427.167C251.047 427.98 249.635 428.386 248.033 428.386ZM248.033 426.418C249.321 426.418 250.411 426.072 251.305 425.38C252.198 424.688 252.874 423.766 253.333 422.615C253.8 421.464 254.033 420.196 254.033 418.812C254.033 417.427 253.8 416.156 253.333 414.996C252.874 413.837 252.198 412.908 251.305 412.207C250.411 411.507 249.321 411.157 248.033 411.157C246.753 411.157 245.662 411.507 244.761 412.207C243.867 412.908 243.187 413.837 242.72 414.996C242.261 416.156 242.032 417.427 242.032 418.812C242.032 420.196 242.261 421.464 242.72 422.615C243.187 423.766 243.867 424.688 244.761 425.38C245.654 426.072 246.745 426.418 248.033 426.418ZM267.589 428.386C266.068 428.386 264.736 427.984 263.593 427.179C262.45 426.374 261.556 425.251 260.913 423.81C260.277 422.37 259.959 420.691 259.959 418.776C259.959 416.868 260.277 415.198 260.913 413.765C261.556 412.324 262.454 411.205 263.605 410.408C264.756 409.603 266.096 409.201 267.626 409.201C268.753 409.201 269.69 409.402 270.439 409.805C271.187 410.199 271.787 410.69 272.238 411.278C272.689 411.865 273.039 412.437 273.288 412.992H273.481V403.273H275.643V428H273.542V424.559H273.288C273.039 425.122 272.685 425.702 272.226 426.298C271.767 426.885 271.159 427.38 270.403 427.783C269.654 428.185 268.716 428.386 267.589 428.386ZM267.843 426.418C269.042 426.418 270.065 426.092 270.91 425.44C271.755 424.78 272.399 423.875 272.842 422.724C273.292 421.565 273.518 420.237 273.518 418.739C273.518 417.258 273.296 415.95 272.854 414.815C272.411 413.672 271.767 412.779 270.922 412.135C270.077 411.483 269.05 411.157 267.843 411.157C266.603 411.157 265.557 411.495 264.704 412.171C263.859 412.839 263.215 413.745 262.772 414.888C262.337 416.031 262.12 417.315 262.12 418.739C262.12 420.18 262.341 421.48 262.784 422.639C263.227 423.798 263.871 424.72 264.716 425.404C265.569 426.08 266.611 426.418 267.843 426.418ZM289.262 428.386C287.531 428.386 286.034 427.984 284.771 427.179C283.507 426.366 282.529 425.243 281.837 423.81C281.152 422.37 280.81 420.711 280.81 418.836C280.81 416.969 281.152 415.31 281.837 413.862C282.529 412.405 283.483 411.266 284.698 410.445C285.922 409.616 287.334 409.201 288.936 409.201C289.942 409.201 290.912 409.386 291.846 409.756C292.78 410.119 293.617 410.678 294.357 411.435C295.106 412.183 295.697 413.129 296.132 414.272C296.567 415.407 296.784 416.751 296.784 418.305V419.367H282.295V417.472H294.587C294.587 416.28 294.345 415.21 293.862 414.26C293.387 413.302 292.723 412.545 291.87 411.99C291.025 411.435 290.047 411.157 288.936 411.157C287.761 411.157 286.726 411.471 285.833 412.099C284.94 412.727 284.239 413.556 283.732 414.586C283.233 415.616 282.98 416.743 282.972 417.967V419.102C282.972 420.575 283.225 421.862 283.732 422.965C284.247 424.06 284.976 424.909 285.918 425.513C286.859 426.116 287.974 426.418 289.262 426.418C290.139 426.418 290.908 426.281 291.568 426.008C292.236 425.734 292.796 425.368 293.246 424.909C293.705 424.442 294.051 423.931 294.285 423.376L296.325 424.04C296.043 424.821 295.581 425.541 294.937 426.201C294.301 426.861 293.504 427.392 292.546 427.795C291.596 428.189 290.502 428.386 289.262 428.386Z" fill="white"/>
<path d="M54.5603 186L358.556 99L207.45 229.624L360.257 357.07L54.5603 186Z" fill="#273A26"/>
</svg>
